<?xml version="1.0" encoding="utf-8"?>
<!-- Generator: Adobe Illustrator 18.0.0, SVG Export Plug-In . SVG Version: 6.00 Build 0)  -->
<!DOCTYPE svg PUBLIC "-//W3C//DTD SVG 1.1//EN" "http://www.w3.org/Graphics/SVG/1.1/DTD/svg11.dtd">
<svg version="1.1" id="Symbol_Editing_Mode" xmlns="http://www.w3.org/2000/svg" xmlns:xlink="http://www.w3.org/1999/xlink"
	 x="0px" y="0px" viewBox="0 0 18 18" enable-background="new 0 0 18 18" xml:space="preserve">
<g id="Playlister_1_">
</g>
<g>
	<g>
		<polygon fill="#FFFFFF" points="12.4,7.9 9.8,10.5 9.8,4.5 8.2,4.5 8.2,10.5 5.6,7.9 4.5,9 8.4,12.9 5.1,12.9 5.1,11.2 4.5,11.2 
			4.5,13.5 4.9,13.5 5.6,13.5 8.7,13.5 9,13.5 9,13.5 9,13.5 9,13.5 9,13.5 9,13.5 9,13.5 13.5,9 		"/>
		<polygon fill="#FFFFFF" points="12.9,12.9 10.7,12.9 10.1,13.5 10.7,13.5 12.4,13.5 13.5,13.5 13.5,12.4 13.5,11.2 12.9,11.2 		
			"/>
	</g>
</g>
</svg>
