<?xml version="1.0" encoding="utf-8"?>
<!-- Generator: Adobe Illustrator 18.0.0, SVG Export Plug-In . SVG Version: 6.00 Build 0)  -->
<!DOCTYPE svg PUBLIC "-//W3C//DTD SVG 1.1//EN" "http://www.w3.org/Graphics/SVG/1.1/DTD/svg11.dtd">
<svg version="1.1" id="Symbol_Editing_Mode" xmlns="http://www.w3.org/2000/svg" xmlns:xlink="http://www.w3.org/1999/xlink"
	 x="0px" y="0px" viewBox="0 0 64 64" enable-background="new 0 0 64 64" xml:space="preserve">
<g id="Playlister_1_">
</g>
<g>
	<g>
		<path fill="#ffffff" d="M47.7,35.7l-3.6-1.5c0.3-1.5,0.3-3,0-4.5l3.6-1.5c0.3-0.1,0.4-0.4,0.3-0.7l-1.6-3.8
			c-0.1-0.3-0.4-0.4-0.7-0.3L42.1,25c-0.9-1.3-1.9-2.3-3.2-3.2l1.5-3.6c0.1-0.3,0-0.6-0.3-0.7L36.4,16c-0.3-0.1-0.6,0-0.7,0.3
			l-1.5,3.6c-1.5-0.3-3-0.3-4.5,0l-1.5-3.6c-0.1-0.3-0.4-0.4-0.7-0.3l-3.8,1.6c-0.3,0.1-0.4,0.4-0.3,0.7l1.5,3.6
			c-1.3,0.9-2.3,1.9-3.2,3.2l-3.6-1.5c-0.3-0.1-0.6,0-0.7,0.3L16,27.6c-0.1,0.3,0,0.6,0.3,0.7l3.6,1.5c-0.3,1.5-0.3,3,0,4.5
			l-3.6,1.5c-0.3,0.1-0.4,0.4-0.3,0.7l1.6,3.8c0.1,0.3,0.4,0.4,0.7,0.3l3.6-1.5c0.9,1.3,1.9,2.3,3.2,3.2l-1.5,3.6
			c-0.1,0.3,0,0.6,0.3,0.7l3.8,1.6c0.3,0.1,0.6,0,0.7-0.3l1.5-3.6c1.5,0.3,3,0.3,4.5,0l1.5,3.6c0.1,0.3,0.4,0.4,0.7,0.3l3.8-1.6
			c0.3-0.1,0.4-0.4,0.3-0.7L39,42.1c1.3-0.9,2.3-1.9,3.2-3.2l3.6,1.5c0.3,0.1,0.6,0,0.7-0.3l1.6-3.8C48.1,36.1,47.9,35.8,47.7,35.7z
			 M33.5,35.7c-2,0.8-4.4-0.1-5.2-2.2c-0.8-2,0.1-4.4,2.2-5.2c2-0.8,4.4,0.1,5.2,2.2C36.5,32.5,35.6,34.9,33.5,35.7z"/>
	</g>
</g>
</svg>
