<?xml version="1.0" encoding="utf-8"?>
<!-- Generator: Adobe Illustrator 18.0.0, SVG Export Plug-In . SVG Version: 6.00 Build 0)  -->
<!DOCTYPE svg PUBLIC "-//W3C//DTD SVG 1.1//EN" "http://www.w3.org/Graphics/SVG/1.1/DTD/svg11.dtd">
<svg version="1.1" id="Symbol_Editing_Mode" xmlns="http://www.w3.org/2000/svg" xmlns:xlink="http://www.w3.org/1999/xlink"
	 x="0px" y="0px" viewBox="0 0 64 64" enable-background="new 0 0 64 64" xml:space="preserve">
<g id="Playlister_1_">
</g>
<g>
	<g>
		<path fill="#333333" d="M21.2,37.8c1.6,0,3-0.7,4-1.8l9,4.8c-0.1,0.4-0.2,0.8-0.2,1.3c0,3,2.5,5.5,5.5,5.5c3,0,5.5-2.4,5.5-5.5
			c0-3-2.5-5.5-5.5-5.5c-1.6,0-3,0.7-4,1.8l-9.5-5.2L26,30.5l9.7-5.5c1,1,2.3,1.5,3.8,1.5c3,0,5.5-2.5,5.5-5.5s-2.5-5.5-5.5-5.5
			c-3,0-5.5,2.4-5.5,5.5c0,0.6,0.1,1.1,0.2,1.6L25,28.4c-1-0.9-2.3-1.5-3.8-1.5c-3,0-5.5,2.4-5.5,5.5C15.8,35.3,18.2,37.8,21.2,37.8
			z"/>
	</g>
</g>
</svg>
