<?xml version="1.0" encoding="utf-8"?>
<!-- Generator: Adobe Illustrator 18.0.0, SVG Export Plug-In . SVG Version: 6.00 Build 0)  -->
<!DOCTYPE svg PUBLIC "-//W3C//DTD SVG 1.1//EN" "http://www.w3.org/Graphics/SVG/1.1/DTD/svg11.dtd">
<svg version="1.1" id="Symbol_Editing_Mode" xmlns="http://www.w3.org/2000/svg" xmlns:xlink="http://www.w3.org/1999/xlink"
	 x="0px" y="0px" viewBox="0 0 64 64" enable-background="new 0 0 64 64" xml:space="preserve">
<path fill="#E21118" d="M32.4,15.2c-0.3,0-0.7,0-1,0.1v4.1c0.3,0,0.7-0.1,1-0.1c6.8,0,12.3,5.5,12.3,12.3c0,6.8-5.5,12.3-12.3,12.3
	s-12.3-5.5-12.3-12.3H16c0,9,7.3,16.4,16.4,16.4s16.4-7.3,16.4-16.4C48.8,22.5,41.4,15.2,32.4,15.2"/>
<polygon fill="#E21118" points="41.4,35.6 33.4,31 33.4,21.3 31.4,21.3 31.4,31.6 31.4,32.2 40.4,37.4 "/>
</svg>
