<?xml version="1.0" encoding="utf-8"?>
<!-- Generator: Adobe Illustrator 18.0.0, SVG Export Plug-In . SVG Version: 6.00 Build 0)  -->
<!DOCTYPE svg PUBLIC "-//W3C//DTD SVG 1.1//EN" "http://www.w3.org/Graphics/SVG/1.1/DTD/svg11.dtd">
<svg version="1.1" id="Symbol_Editing_Mode" xmlns="http://www.w3.org/2000/svg" xmlns:xlink="http://www.w3.org/1999/xlink"
	 x="0px" y="0px" viewBox="0 0 64 64" enable-background="new 0 0 64 64" xml:space="preserve">
<g id="Playlister_1_">
	<rect id="iP_1_" x="0" fill="#FFFFFF" width="63.8" height="63.8"/>
	<g id="PLAYLISTER_1_">
		<path fill="#333333" d="M25.1,14.4l0,4.7c0,0,5,0,6.3,0c1.3,0,3.8,0.2,5.2,0.9c2,1.1,3,2.9,3,5.6c0,2.7-1,4.5-3,5.6
			c-1.7,0.9-3.5,0.9-3.5,0.9v4.7c4.5,0,11.2-3,11.2-11.2c0-8.1-4.9-11.2-13-11.2C30.6,14.4,25.1,14.4,25.1,14.4z"/>
		<path fill="#333333" d="M33.8,23.5L33.8,23.5l-8.8,0v16.9c-0.6,0-1.1,0.1-1.7,0.3c-2.8,0.9-4.5,3.5-3.8,5.8
			c0.7,2.3,3.6,3.4,6.4,2.5c2.7-0.8,3.9-3,3.9-5.5l0-15.3c0,0,3.9,0,4,0c1.3,0,2.4-1.1,2.4-2.4C36.2,24.6,35.1,23.5,33.8,23.5z"/>
	</g>
</g>
</svg>
