<?xml version="1.0" encoding="utf-8"?>
<!-- Generator: Adobe Illustrator 18.0.0, SVG Export Plug-In . SVG Version: 6.00 Build 0)  -->
<!DOCTYPE svg PUBLIC "-//W3C//DTD SVG 1.1//EN" "http://www.w3.org/Graphics/SVG/1.1/DTD/svg11.dtd">
<svg version="1.1" id="Layer_1" xmlns="http://www.w3.org/2000/svg" xmlns:xlink="http://www.w3.org/1999/xlink" x="0px" y="0px"
	 viewBox="0 0 64 64" enable-background="new 0 0 64 64" xml:space="preserve">
<g>
	<path fill="#FFFFFF" d="M24.2,37.3c1.3,0,2.4-0.6,3.2-1.4l7.3,3.9c-0.1,0.3-0.1,0.7-0.1,1c0,2.4,2,4.4,4.4,4.4c2.4,0,4.4-2,4.4-4.4
		c0-2.4-2-4.4-4.4-4.4c-1.3,0-2.4,0.5-3.2,1.4l-7.6-4.2L28,31.4l7.9-4.4c0.8,0.8,1.9,1.2,3.1,1.2c2.4,0,4.4-2,4.4-4.4
		s-2-4.4-4.4-4.4c-2.4,0-4.4,2-4.4,4.4c0,0.4,0.1,0.9,0.2,1.3l-7.5,4.6c-0.8-0.8-1.9-1.2-3.1-1.2c-2.4,0-4.4,2-4.4,4.4
		C19.8,35.3,21.8,37.3,24.2,37.3z"/>
</g>
</svg>
