<?xml version="1.0" encoding="utf-8"?>
<!-- Generator: Adobe Illustrator 18.0.0, SVG Export Plug-In . SVG Version: 6.00 Build 0)  -->
<!DOCTYPE svg PUBLIC "-//W3C//DTD SVG 1.0//EN" "http://www.w3.org/TR/2001/REC-SVG-20010904/DTD/svg10.dtd">
<svg version="1.0" id="Layer_1" xmlns="http://www.w3.org/2000/svg" xmlns:xlink="http://www.w3.org/1999/xlink" x="0px" y="0px"
	 viewBox="0 0 372.8 370.8" enable-background="new 0 0 372.8 370.8" xml:space="preserve">
<g>
	<circle fill="#010202" cx="185.4" cy="185.4" r="72.1"/>
	<path fill="#010202" d="M185.4,0C82.4,0,0,82.4,0,185.4s82.4,185.4,185.4,185.4c37.1,0,70-10.3,98.9-28.8l-26.8-53.6H113.3
		l-16.5,33c-43.3-28.8-72.1-78.3-72.1-135.9c0-88.6,72.1-162.7,162.7-162.7c88.6,0,162.7,72.1,162.7,162.7
		c0,45.3-18.5,84.5-47.4,115.3l10.3,22.7c37.1-33,59.7-82.4,59.7-135.9C370.8,82.4,288.4,0,185.4,0z"/>
</g>
</svg>
