<?xml version="1.0" encoding="utf-8"?>
<!-- Generator: Adobe Illustrator 18.0.0, SVG Export Plug-In . SVG Version: 6.00 Build 0)  -->
<!DOCTYPE svg PUBLIC "-//W3C//DTD SVG 1.0//EN" "http://www.w3.org/TR/2001/REC-SVG-20010904/DTD/svg10.dtd">
<svg version="1.0" id="Layer_1" xmlns="http://www.w3.org/2000/svg" xmlns:xlink="http://www.w3.org/1999/xlink" x="0px" y="0px"
	 viewBox="0 0 526.4 150.6" enable-background="new 0 0 526.4 150.6" xml:space="preserve">
<g>
	<path fill="#1D2124" d="M526.4,0v150.6H367.2V0C367.2,0,526.4,0,526.4,0z M494.2,99.7l-2.9,1.4c-12.2,7.9-25.8,11.5-38,11.5
		c-25.8,0-43-15.8-43-38s17.9-38.7,42.3-38.7c12.9,0,23.7,3.6,37.3,10.8l2.2,1.4V28.7l-0.7-0.7c-15.1-5.7-27.3-8.6-38.7-8.6
		c-17.9,0-33.7,5.7-45.2,16.5c-11.5,10-17.9,24.4-17.9,40.9c0,11.5,5,25.1,15.1,35.9c10,10.8,25.8,18.6,46.6,18.6l0,0
		c17.9,0,30.1-4.3,40.9-9.3l0.7-0.7V99.7H494.2z"/>
	<g>
		<path fill="#1D2124" d="M342.8,0v150.6H183.6V0C183.6,0,342.8,0,342.8,0z M304.8,99c0-13.6-9.3-23.7-23.7-28
			c3.6-2.2,7.2-4.3,9.3-7.2c2.9-4.3,4.3-8.6,4.3-14.3c0-7.2-2.9-14.3-8.6-19.4c-5.7-5-15.1-8.6-27.3-8.6h-33.7v108.3h39.4l0,0
			c14.3,0,24.4-3.6,30.8-9.3C301.9,114,304.8,106.1,304.8,99z"/>
		<path fill="#1D2124" d="M284.7,96.8c0,3.6-1.4,7.2-4.3,10c-2.9,2.9-8.6,5-17.9,5h-18.6V82.5h17.2c7.9,0,13.6,1.4,17.9,4.3
			C283.3,89.7,284.7,92.5,284.7,96.8z"/>
		<path fill="#1D2124" d="M270.4,61.7c3.6-2.2,5-5.7,5-11.5c0-3.6-0.7-6.5-3.6-9.3c-2.9-2.2-7.2-3.6-14.3-3.6h-12.9v28h8.6
			C261.1,66,266.8,64.5,270.4,61.7z"/>
	</g>
	<g>
		<path fill="#1D2124" d="M159.2,0v150.6H0V0C0,0,159.2,0,159.2,0z M121.2,99c0-13.6-9.3-23.7-23.7-28c3.6-2.2,7.2-4.3,9.3-7.2
			c2.9-4.3,4.3-8.6,4.3-14.3c0-7.2-2.9-14.3-8.6-19.4c-5.7-5-15.1-8.6-27.3-8.6H41.6v108.3h40.2l0,0c14.3,0,24.4-3.6,30.8-9.3
			C118.3,114,121.2,106.1,121.2,99z"/>
		<path fill="#1D2124" d="M86.8,61.7c3.6-2.2,5-5.7,5-11.5c0-3.6-0.7-6.5-3.6-9.3c-2.9-2.2-7.2-3.6-14.3-3.6H61v28h8.6
			C77.5,66,83.2,64.5,86.8,61.7z"/>
		<path fill="#1D2124" d="M96.1,86.8c-3.6-2.9-9.3-4.3-17.9-4.3H61v29.4h18.6c9.3,0,14.3-2.2,17.9-5c2.9-2.9,4.3-6.5,4.3-10
			C101.8,92.5,99.7,89.7,96.1,86.8z"/>
	</g>
</g>
</svg>
