<?xml version="1.0" encoding="utf-8"?>
<!-- Generator: Adobe Illustrator 18.0.0, SVG Export Plug-In . SVG Version: 6.00 Build 0)  -->
<!DOCTYPE svg PUBLIC "-//W3C//DTD SVG 1.0//EN" "http://www.w3.org/TR/2001/REC-SVG-20010904/DTD/svg10.dtd">
<svg version="1.0" id="Layer_1" xmlns="http://www.w3.org/2000/svg" xmlns:xlink="http://www.w3.org/1999/xlink" x="0px" y="0px"
	 viewBox="0 0 17 17" enable-background="new 0 0 17 17" xml:space="preserve">
<path fill="#1D2124" d="M6.6,10.9c-2.3,0-4.2-1.9-4.2-4.3c0-2.3,1.9-4.2,4.2-4.2c2.3,0,4.2,1.9,4.2,4.2C10.9,9,9,10.9,6.6,10.9
	 M12.3,10.3c0.7-1,1.1-2.3,1.1-3.6c0-3.7-3-6.7-6.7-6.7C3,0,0,3,0,6.7c0,3.7,3,6.7,6.7,6.7c1.3,0,2.6-0.4,3.6-1.1L15,17l2-2
	L12.3,10.3z"/>
</svg>
